<svg xmlns="http://www.w3.org/2000/svg" viewBox="0 0 1009 300"><defs><style>.a{fill:#fefefe;}.b{fill:#3fc6d4;}.c{fill:#737373;}</style></defs><path class="a" d="M1009,197V300H226a13.4,13.4,0,0,1,2.6-.9c36.6-3.5,69.2-36,70.1-72.9q1.8-75.6-.1-151.2c-.8-35.7-31.5-67.2-66.8-72.2C226.9,2.2,221.9,1,217,0h792V189l-3.6-6.7L940.7,70.6c-7.9-13.4-26.5-13.1-34.4.5L842.4,181.6c-4.2,7.2-5,14.5-.9,21.7s10.8,9.8,18.9,9.8c40.2-.1,80.3-.4,120.4.1C994.1,213.4,1004.3,210.5,1009,197ZM636.6,121.5c0-10.7.1-21.2,0-31.7C636.3,73,624.1,61,607.4,61H541c-16.2,0-28.2,11.8-28.3,27.9q-.2,49.2,0,98.4A27.7,27.7,0,0,0,540.3,215h98.4a27.7,27.7,0,0,0,27.5-27.8c.1-10.5-.7-21,.2-31.4C667.9,137.4,657,122.9,636.6,121.5ZM492.1,142.9c0-18,.1-36,0-54A27.4,27.4,0,0,0,464.3,61H367.8A27.5,27.5,0,0,0,340,88.8q-.2,54,0,108c0,10.4,7.8,18.3,17.7,18.2s17.3-7.4,17.3-18V149.5c0-12.6-.1-25.3.1-37.9.1-9.8,5.5-14.7,14.2-13.6,6.2.8,9.6,6,9.6,15.3.1,27.6,0,55.3,0,82.9,0,11.1,7.4,19.1,17.5,19.1s17.6-7.7,17.6-18.8v-84c0-9.7,4.2-14.5,11.9-14.5s11.1,4.9,11.1,14.5v84c0,10.4,7.8,18.5,17.6,18.5s17.5-7.2,17.5-18.2Zm336.2-21.1a43.9,43.9,0,0,0-.9-4.7c-9-29.3-28-48.6-58.4-54.3-28.3-5.3-53.4,2-73.2,23.8-36,39.5-20.2,104.5,29.7,123.4,24.3,9.1,49.8,4.9,74.6,5.1,15.8.1,27.9-12.1,30-28.7,1.9-14.9,1.2-30.3.5-45.4-.2-2.8-5.8-7.7-9-7.8-19.4-.7-38.9-.5-58.4-.3-6.1.1-9.4,4.2-9.8,10s2.3,10.1,8.4,11.1a92.1,92.1,0,0,0,12.9.7c6.7.1,13.4,0,20.2,0v24.8c-14.2,0-28.2.5-42.1-.2a51.9,51.9,0,0,1-18.6-4.6C716,166.4,707.3,144,714,124.3S740.4,94,759.8,97.5c15.1,2.6,25,11.2,31.5,24.3Z"/><path class="b" d="M217,0c4.9,1,9.9,2.2,14.8,2.8,35.3,5,66,36.5,66.8,72.2q1.8,75.6.1,151.2c-.9,36.9-33.5,69.4-70.1,72.9a13.4,13.4,0,0,0-2.6.9H71a5.1,5.1,0,0,0-1.6-.9c-25.2-4.3-44.7-17.5-57.3-39.5C6.6,249.9,4,238.6,0,228V75c.3-.9.8-1.8,1-2.7A83,83,0,0,1,68.6,2.4C73.7,1.4,78.9.8,84,0Zm-9.3,130.6c0-12.2.1-24.2-.1-36.1C207.3,69.4,193.7,56,168.8,56H91.4c-20.6,0-36,14.8-36.1,35.3-.1,39.5-.1,78.9,0,118.4.1,19.3,15.6,35.2,34.3,35.3H209.5c19.5-.1,34.1-14.5,34.6-34,.4-13.4.2-26.7.2-40C244.3,146,233.1,133.5,207.7,130.6Z"/><path class="c" d="M1009,197c-4.7,13.5-14.9,16.4-28.2,16.2-40.1-.5-80.2-.2-120.4-.1-8.1,0-14.8-2.6-18.9-9.8s-3.3-14.5.9-21.7L906.3,71.1c7.9-13.6,26.5-13.9,34.4-.5l64.7,111.7,3.6,6.7Z"/><path class="a" d="M84,0C78.9.8,73.7,1.4,68.6,2.4A83,83,0,0,0,1,72.3c-.2.9-.7,1.8-1,2.7V0Z"/><path class="a" d="M0,228c4,10.6,6.6,21.9,12.1,31.6,12.6,22,32.1,35.2,57.3,39.5a5.1,5.1,0,0,1,1.6.9H0Z"/><path class="c" d="M636.6,121.5c20.4,1.4,31.3,15.9,29.8,34.3-.9,10.4-.1,20.9-.2,31.4A27.7,27.7,0,0,1,638.7,215H540.3a27.7,27.7,0,0,1-27.6-27.7q-.2-49.2,0-98.4C512.8,72.8,524.8,61,541,61h66.4c16.7,0,28.9,12,29.2,28.8C636.7,100.3,636.6,110.8,636.6,121.5ZM589.8,156H561.4c-7.9.2-12.7,4.4-13.2,10.9s3.8,12.1,11.4,12.3c19.6.6,39.2.6,58.8.2,7.5-.1,12.4-5.8,12.1-11.9s-5.4-11.4-13.7-11.5Zm-15.2-34.8c5.1-.4,10.6-.3,16-1.2s8.7-5.3,8.8-11.1-2.3-10.5-8.1-10.8a301.9,301.9,0,0,0-34.3-.2c-6,.3-8.8,5.5-8.6,11.1s3.3,10.5,9.9,11.2S568.9,120.8,574.6,121.2Z"/><path class="c" d="M492.1,142.9v53.9c0,11-7,18.2-17.5,18.2S457,206.9,457,196.5v-84c0-9.6-3.7-14.5-11.1-14.5S434,102.8,434,112.5v84c0,11.1-7.2,18.8-17.6,18.8s-17.5-8-17.5-19.1c0-27.6.1-55.3,0-82.9,0-9.3-3.4-14.5-9.6-15.3-8.7-1.1-14.1,3.8-14.2,13.6-.2,12.6-.1,25.3-.1,37.9V197c0,10.6-7.1,17.9-17.3,18S340,207.2,340,196.8q-.2-54,0-108A27.5,27.5,0,0,1,367.8,61h96.5a27.4,27.4,0,0,1,27.8,27.9C492.2,106.9,492.1,124.9,492.1,142.9Z"/><path class="c" d="M828.3,121.8h-37c-6.5-13.1-16.4-21.7-31.5-24.3-19.4-3.5-39.4,7.8-45.8,26.8s2,42.1,20.2,50.4a51.9,51.9,0,0,0,18.6,4.6c13.9.7,27.9.2,42.1.2V154.7c-6.8,0-13.5.1-20.2,0a92.1,92.1,0,0,1-12.9-.7c-6.1-1-8.7-5.3-8.4-11.1s3.7-9.9,9.8-10c19.5-.2,39-.4,58.4.3,3.2.1,8.8,5,9,7.8.7,15.1,1.4,30.5-.5,45.4-2.1,16.6-14.2,28.8-30,28.7-24.8-.2-50.3,4-74.6-5.1-49.9-18.9-65.7-83.9-29.7-123.4,19.8-21.8,44.9-29.1,73.2-23.8,30.4,5.7,49.4,25,58.4,54.3A43.9,43.9,0,0,1,828.3,121.8Z"/><path class="a" d="M207.7,130.6c25.4,2.9,36.6,15.4,36.6,40.4,0,13.3.2,26.6-.2,40-.5,19.5-15.1,33.9-34.6,34H89.6c-18.7-.1-34.2-16-34.3-35.3-.1-39.5-.1-78.9,0-118.4C55.4,70.8,70.8,56,91.4,56h77.4c24.9,0,38.5,13.4,38.8,38.5C207.8,106.4,207.7,118.4,207.7,130.6Zm-58.2,71.1H184c9.5,0,15.7-5.7,15.8-14.2S193.4,173,184.1,173H115.7c-9,0-15.4,5.8-15.6,14s6.1,14.6,15.4,14.6ZM130.9,129h17c8.4-.3,13.9-5.8,14.1-13.8s-5.3-14.5-13.6-14.7c-11.5-.4-23-.3-34.5-.1a14.2,14.2,0,0,0-13.8,14.8c.2,7.7,6.2,13.6,14.3,13.8Z"/><path class="a" d="M589.8,156h27c8.3.1,13.4,4.5,13.7,11.5s-4.6,11.8-12.1,11.9c-19.6.4-39.2.4-58.8-.2-7.6-.2-12-5.9-11.4-12.3s5.3-10.7,13.2-10.9Z"/><path class="a" d="M574.6,121.2c-5.7-.4-11-.5-16.3-1s-9.8-5.3-9.9-11.2S551,98.2,557,97.9a301.9,301.9,0,0,1,34.3.2c5.8.3,8.2,5.3,8.1,10.8s-2.9,10.1-8.8,11.1S579.7,120.8,574.6,121.2Z"/><path class="b" d="M149.5,201.7h-34c-9.3,0-15.6-6.1-15.4-14.6s6.6-14,15.6-14h68.4c9.3,0,15.8,6.1,15.7,14.4s-6.3,14.2-15.8,14.2Z"/><path class="b" d="M130.9,129H114.4c-8.1-.2-14.1-6.1-14.3-13.8a14.2,14.2,0,0,1,13.8-14.8c11.5-.2,23-.3,34.5.1,8.3.2,13.8,6.6,13.6,14.7s-5.7,13.5-14.1,13.8Z"/></svg>